<svg width="26" height="26" viewBox="0 0 24 24" fill="none" xmlns="http://www.w3.org/2000/svg">
<path d="M22.75 9V15C22.75 20.43 20.43 22.75 15 22.75H9C3.57 22.75 1.25 20.43 1.25 15L1.25 9C1.25 3.57 3.57 1.25 9 1.25H15C20.43 1.25 22.75 3.57 22.75 9ZM2.75 15C2.75 19.61 4.39 21.25 9 21.25H15C19.61 21.25 21.25 19.61 21.25 15V9C21.25 4.39 19.61 2.75 15 2.75H9C4.39 2.75 2.75 4.39 2.75 9L2.75 15Z" fill="#6C6C6C"/>
<path d="M14.91 12C14.91 12.19 14.84 12.38 14.69 12.53L11.16 16.06C11.0189 16.1995 10.8284 16.2777 10.63 16.2777C10.4316 16.2777 10.2411 16.1995 10.1 16.06C9.81001 15.77 9.81001 15.29 10.1 15L13.1 12L10.1 9.00001C9.81001 8.71001 9.81001 8.23001 10.1 7.94001C10.39 7.65001 10.87 7.65001 11.16 7.94001L14.69 11.47C14.84 11.62 14.91 11.81 14.91 12Z" fill="#6C6C6C"/>
</svg>
