<svg width="24" height="24" viewBox="0 0 24 24" fill="none" xmlns="http://www.w3.org/2000/svg">
<path d="M3.93099 16.631C3.74099 16.631 3.55099 16.561 3.40099 16.411C3.26151 16.2698 3.18329 16.0794 3.18329 15.881C3.18329 15.6825 3.26151 15.4921 3.40099 15.351L15.351 3.40097C15.641 3.11097 16.121 3.11097 16.411 3.40097C16.701 3.69097 16.701 4.17097 16.411 4.46097L4.46099 16.421C4.32099 16.561 4.12099 16.631 3.93099 16.631ZM11.1 19.03C10.91 19.03 10.72 18.96 10.57 18.81C10.4305 18.6688 10.3523 18.4784 10.3523 18.28C10.3523 18.0815 10.4305 17.8911 10.57 17.75L11.77 16.55C12.06 16.26 12.54 16.26 12.83 16.55C13.12 16.84 13.12 17.32 12.83 17.61L11.63 18.81C11.4895 18.9507 11.2988 19.0298 11.1 19.03ZM13.79 16.34C13.6 16.34 13.41 16.27 13.26 16.12C13.1205 15.9788 13.0423 15.7884 13.0423 15.59C13.0423 15.3915 13.1205 15.2011 13.26 15.06L15.65 12.67C15.94 12.38 16.42 12.38 16.71 12.67C17 12.96 17 13.44 16.71 13.73L14.32 16.12C14.18 16.26 13.98 16.34 13.79 16.34Z" fill="#6C6C6C"/>
<path d="M11.099 22.7491C10.119 22.7491 9.139 22.1491 7.949 20.9591L3.039 16.0491C0.648998 13.6591 0.658998 12.1191 3.069 9.70906L9.709 3.06906C12.119 0.65906 13.659 0.64906 16.049 3.03906L20.959 7.94906C23.349 10.3391 23.339 11.8791 20.929 14.2891L14.289 20.9291C13.079 22.1391 12.089 22.7491 11.099 22.7491ZM12.899 2.74906C12.379 2.74906 11.719 3.17906 10.769 4.12906L4.129 10.7691C3.179 11.7191 2.749 12.3791 2.749 12.8891C2.749 13.4091 3.149 14.0391 4.099 14.9891L9.009 19.8991C9.959 20.8491 10.579 21.2491 11.099 21.2491H11.109C11.629 21.2491 12.279 20.8191 13.229 19.8691L19.869 13.2291C20.819 12.2791 21.249 11.6191 21.249 11.1091C21.249 10.5891 20.849 9.95906 19.899 9.00906L14.989 4.09906C14.049 3.14906 13.419 2.74906 12.899 2.74906Z" fill="#6C6C6C"/>
<path d="M22 22.75H2C1.59 22.75 1.25 22.41 1.25 22C1.25 21.59 1.59 21.25 2 21.25H22C22.41 21.25 22.75 21.59 22.75 22C22.75 22.41 22.41 22.75 22 22.75Z" fill="#6C6C6C"/>
</svg>
