<svg width="68" height="68" viewBox="0 0 68 68" fill="none" xmlns="http://www.w3.org/2000/svg">
<path d="M34 0.666504C15.6333 0.666504 0.666626 15.6332 0.666626 33.9998C0.666626 52.3665 15.6333 67.3332 34 67.3332C52.3666 67.3332 67.3333 52.3665 67.3333 33.9998C67.3333 15.6332 52.3666 0.666504 34 0.666504ZM49.9333 26.3332L31.0333 45.2332C30.5645 45.7013 29.9291 45.9643 29.2666 45.9643C28.6041 45.9643 27.9687 45.7013 27.5 45.2332L18.0666 35.7998C17.6017 35.3294 17.341 34.6946 17.341 34.0332C17.341 33.3717 17.6017 32.737 18.0666 32.2665C19.0333 31.2998 20.6333 31.2998 21.6 32.2665L29.2666 39.9332L46.4 22.7998C47.3666 21.8332 48.9666 21.8332 49.9333 22.7998C50.9 23.7665 50.9 25.3332 49.9333 26.3332Z" fill="#15CF74"/>
</svg>
