<svg width="26" height="26" viewBox="0 0 24 24" fill="none" xmlns="http://www.w3.org/2000/svg">
<path d="M6.88001 18.8979C6.47001 18.8979 6.13001 18.5579 6.13001 18.1479V16.0779C6.13001 15.6679 6.47001 15.3279 6.88001 15.3279C7.29001 15.3279 7.63001 15.6679 7.63001 16.0779V18.1479C7.63001 18.5679 7.29001 18.8979 6.88001 18.8979ZM12 18.8999C11.59 18.8999 11.25 18.5599 11.25 18.1499V13.9999C11.25 13.5899 11.59 13.2499 12 13.2499C12.41 13.2499 12.75 13.5899 12.75 13.9999V18.1499C12.75 18.5699 12.41 18.8999 12 18.8999ZM17.12 18.8999C16.71 18.8999 16.37 18.5599 16.37 18.1499V11.9299C16.37 11.5199 16.71 11.1799 17.12 11.1799C17.53 11.1799 17.87 11.5199 17.87 11.9299V18.1499C17.87 18.5699 17.54 18.8999 17.12 18.8999ZM6.88001 13.1809C6.54001 13.1809 6.24001 12.9509 6.15001 12.6109C6.05001 12.2109 6.29001 11.8009 6.70001 11.7009C10.38 10.7809 13.62 8.7709 16.09 5.9009L16.55 5.3609C16.82 5.0509 17.29 5.0109 17.61 5.2809C17.92 5.5509 17.96 6.0209 17.69 6.3409L17.23 6.8809C14.5804 9.98653 11.0235 12.1829 7.06001 13.1609C7.00001 13.1809 6.94001 13.1809 6.88001 13.1809Z" fill="white"/>
<path d="M17.12 9.52205C16.71 9.52205 16.37 9.18205 16.37 8.77205V6.60205H14.19C13.78 6.60205 13.44 6.26205 13.44 5.85205C13.44 5.44205 13.78 5.10205 14.19 5.10205H17.12C17.53 5.10205 17.87 5.44205 17.87 5.85205V8.78205C17.87 9.19205 17.54 9.52205 17.12 9.52205Z" fill="white"/>
<path d="M15 22.75H9C3.57 22.75 1.25 20.43 1.25 15V9C1.25 3.57 3.57 1.25 9 1.25H15C20.43 1.25 22.75 3.57 22.75 9V15C22.75 20.43 20.43 22.75 15 22.75ZM9 2.75C4.39 2.75 2.75 4.39 2.75 9V15C2.75 19.61 4.39 21.25 9 21.25H15C19.61 21.25 21.25 19.61 21.25 15V9C21.25 4.39 19.61 2.75 15 2.75H9Z" fill="white"/>
</svg>
