<svg width="20" height="20" viewBox="0 0 18 18" fill="none" xmlns="http://www.w3.org/2000/svg">
<path d="M12 9.675V12.825C12 15.45 10.95 16.5 8.325 16.5H5.175C2.55 16.5 1.5 15.45 1.5 12.825V9.675C1.5 7.05 2.55 6 5.175 6H8.325C10.95 6 12 7.05 12 9.675Z" fill="#6C6C6C"/>
<path d="M12.825 1.5H9.67499C7.36274 1.5 6.27749 2.3205 6.05249 4.30425C6.00449 4.719 6.34874 5.0625 6.76649 5.0625H8.32499C11.475 5.0625 12.9375 6.525 12.9375 9.675V11.2335C12.9375 11.6512 13.2802 11.9948 13.695 11.9475C15.6802 11.7225 16.5 10.6372 16.5 8.325V5.175C16.5 2.55 15.45 1.5 12.825 1.5Z" fill="#6C6C6C"/>
</svg>
